<svg xmlns="http://www.w3.org/2000/svg" viewBox="0 0 24 24">
  <path fill="#e60023" d="M12 2C6.48 2 2 6.48 2 12c0 4.24 2.62 7.87 6.32 9.36-.09-.79-.17-2.01.04-2.88.19-.79 1.22-5.09 1.22-5.09s-.31-.62-.31-1.54c0-1.44.84-2.52 1.87-2.52.88 0 1.31.66 1.31 1.45 0 .88-.56 2.21-.85 3.44-.24 1.02.51 1.86 1.52 1.86 1.82 0 3.22-1.92 3.22-4.7 0-2.46-1.77-4.18-4.29-4.18-2.92 0-4.64 2.19-4.64 4.45 0 .88.34 1.83.76 2.34.08.1.09.19.07.29-.08.32-.25 1.02-.29 1.16-.04.19-.15.23-.35.14-1.3-.61-2.11-2.5-2.11-4.03 0-3.28 2.38-6.29 6.87-6.29 3.6 0 6.4 2.57 6.4 6 0 3.58-2.26 6.46-5.39 6.46-1.05 0-2.04-.55-2.38-1.2l-.65 2.47c-.23.9-.87 2.02-1.29 2.71.97.3 2 .46 3.06.46 5.52 0 10-4.48 10-10S17.52 2 12 2z"/>
</svg>
